<?xml version="1.0" standalone="no"?>
<!DOCTYPE svg PUBLIC "-//W3C//DTD SVG 20010904//EN"
 "http://www.w3.org/TR/2001/REC-SVG-20010904/DTD/svg10.dtd">
<svg version="1.0" xmlns="http://www.w3.org/2000/svg"
 width="334.000000pt" height="77.000000pt" viewBox="0 0 334.000000 77.000000"
 preserveAspectRatio="xMidYMid meet">

<g transform="translate(0.000000,77.000000) scale(0.100000,-0.100000)"
fill="#000000" stroke="none">
<path d="M84 714 c3 -9 6 -162 6 -340 l0 -324 1593 2 1592 3 2 338 1 337
-1600 0 c-1455 0 -1600 -1 -1594 -16z m1006 -324 l0 -300 -485 0 -485 0 0 300
0 300 485 0 485 0 0 -300z m499 66 c34 -33 44 -70 30 -119 -24 -89 -170 -115
-238 -43 -47 50 -35 141 23 178 48 30 146 22 185 -16z m309 12 c3 -16 -6 -18
-82 -18 -85 0 -86 0 -86 -25 0 -23 4 -24 63 -27 54 -3 62 -5 62 -23 0 -18 -8
-20 -62 -23 l-62 -3 -3 -47 c-3 -39 -6 -47 -23 -47 -19 0 -20 8 -23 104 -1 58
0 111 2 118 4 11 29 13 108 11 89 -3 103 -5 106 -20z m210 0 c3 -14 -3 -18
-27 -18 l-31 0 0 -75 c0 -74 0 -75 25 -75 29 0 45 -27 24 -41 -8 -5 -43 -8
-79 -7 -57 3 -65 5 -65 23 0 13 8 21 23 23 20 3 22 9 22 68 0 35 1 67 3 72 1
4 -10 8 -25 10 -20 2 -28 9 -28 23 0 18 6 20 77 17 65 -3 78 -6 81 -20z m292
2 c0 -17 -7 -20 -50 -20 l-49 0 -3 -97 c-3 -90 -5 -98 -23 -98 -18 0 -20 7
-21 95 l-2 95 -51 3 c-48 3 -64 16 -44 35 3 4 60 7 125 7 111 0 118 -1 118
-20z m270 0 c0 -17 -8 -19 -87 -22 -80 -3 -86 -5 -89 -25 -4 -21 0 -22 69 -25
64 -3 72 -5 72 -23 0 -18 -8 -21 -70 -25 -62 -4 -70 -7 -70 -25 0 -18 8 -20
85 -25 77 -5 85 -7 85 -25 0 -18 -8 -20 -81 -23 -44 -1 -93 2 -107 7 -27 10
-27 11 -27 114 0 57 3 107 7 110 3 4 53 7 110 7 96 0 103 -1 103 -20z m263 9
c30 -16 38 -31 25 -46 -8 -10 -16 -10 -39 2 -44 23 -96 19 -124 -10 -41 -40
-28 -103 26 -125 28 -12 38 -11 79 3 60 21 60 21 60 -4 0 -23 -52 -49 -100
-49 -71 0 -140 58 -140 118 0 37 30 91 59 107 32 17 124 19 154 4z"/>
<path d="M674 485 c-12 -30 7 -35 125 -35 92 0 121 3 131 15 24 28 0 35 -126
35 -100 0 -126 -3 -130 -15z"/>
<path d="M325 456 c-55 -59 -53 -141 6 -190 58 -49 89 -24 35 28 -51 47 -47
104 10 149 25 19 22 47 -3 47 -9 0 -30 -15 -48 -34z"/>
<path d="M443 474 c-4 -10 1 -20 11 -26 66 -37 75 -103 20 -153 -35 -33 -38
-55 -7 -55 8 0 30 15 49 34 29 29 34 41 34 80 0 53 -19 97 -52 120 -29 20 -47
20 -55 0z"/>
<path d="M792 401 c-9 -5 -12 -31 -10 -87 3 -71 5 -79 23 -79 18 0 20 8 23 76
3 78 -9 107 -36 90z"/>
<path d="M1426 429 c-43 -34 -35 -99 16 -125 77 -40 162 31 124 104 -8 16 -23
32 -31 36 -33 12 -83 6 -109 -15z"/>
</g>
</svg>
